<svg xmlns="http://www.w3.org/2000/svg" width="21" height="31" viewBox="0 0 21 31">
  <path fill="#282828" fill-rule="evenodd" d="M4.46517722,30.6790127 L0,30.6790127 L0,2.7515443 L4.46517722,0.213075949 L4.46517722,12.5412658 C5.72362025,11.1647089 7.91559494,10.1931139 10.4320886,10.1931139 C16.4802278,10.1931139 20.4988481,14.2419494 20.4988481,20.5577089 C20.4988481,26.8734684 16.4810127,30.921519 10.4320886,30.921519 C7.75313924,30.921519 5.76403797,29.8282785 4.46517722,28.5733671 L4.46517722,30.6786203 L4.46517722,30.6790127 Z M4.38394937,20.5577089 C4.38394937,24.039519 6.69756962,26.6305696 10.2292152,26.6305696 C13.7608608,26.6305696 16.1152911,24.039519 16.1152911,20.5577089 C16.1152911,17.0758987 13.7608608,14.4848481 10.2292152,14.4848481 C6.69756962,14.4848481 4.38394937,17.0758987 4.38394937,20.5577089 L4.38394937,20.5577089 Z"/>
</svg>
